#N struct 1016-cell float x float y float cellsize float color;
#N canvas 129 23 1144 708 10;
#X obj 271 148 cnv 15 804 392 empty empty empty 20 12 0 14 #009400 #404040 0;
#X obj 284 161 cnv 15 776 363 empty empty empty 20 12 0 14 #e0e0e0 #404040 0;
#X obj 1008 187 tgl 30 0 empty \$1-bit1 empty 17 7 0 10 #fc0400 #00fc04 #000000 0 1;
#X obj 1008 233 tgl 30 0 empty \$1-bit2 empty 17 7 0 10 #fc0400 #00fc04 #000000 0 1;
#X obj 1008 281 tgl 30 0 empty \$1-bit3 empty 17 7 0 10 #fc0400 #00fc04 #000000 0 1;
#X obj 193 89 loadbang;
#X obj 831 193 tgl 50 1 \$1-loop empty empty 5 70 0 18 #fc0400 #00fc04 #000000 0 1;
#N canvas 168 364 857 667 benjolinguts 1;
#X obj 54 42 r~ \$1-FIL;
#X obj 70 62 r~ \$1-01TRI;
#X obj 87 82 r~ \$1-01PLS;
#X obj 103 102 r~ \$1-02TRI;
#X obj 119 122 r~ \$1-02PLS;
#X obj 136 142 r~ \$1-PWM;
#X obj 152 162 r~ \$1-RUN;
#X obj 168 182 r~ \$1-XOR;
#X text 44 559 macumbista@gmail.com;
#X text 44 549 DEREK HOLZER;
#X obj 42 486 r~ \$1-OUT;
#X obj 119 486 r~ \$1-01TRI;
#X obj 206 486 r~ \$1-01PLS;
#X obj 292 486 r~ \$1-02TRI;
#X obj 378 486 r~ \$1-02PLS;
#X obj 465 486 r~ \$1-PWM;
#X obj 541 486 r~ \$1-RUN;
#X obj 617 486 r~ \$1-XOR;
#X obj 42 510 outlet~ OUT;
#X obj 119 510 outlet~ 01TRI;
#X obj 206 510 outlet~ 01PLS;
#X obj 292 510 outlet~ 02TRI;
#X obj 378 510 outlet~ 02PLS;
#X obj 465 510 outlet~ PWM;
#X obj 541 510 outlet~ RUN;
#X obj 617 510 outlet~ XOR;
#X obj 138 23 inlet~ 01CV;
#X obj 210 23 inlet~ 02CV;
#X obj 283 23 inlet~ FILCV;
#N canvas 205 75 898 629 rungler 0;
#X text 23 496 Sept 2016;
#X text 23 507 macumbista@gmail.com;
#X obj 35 304 samphold~;
#X obj 104 305 samphold~;
#X obj 180 305 samphold~;
#X obj 249 306 samphold~;
#X text 62 142 XOR;
#X obj 105 168 >~;
#X obj 146 143 <~;
#X obj 105 194 ==~;
#X obj 454 409 > 50;
#X obj 517 409 > 50;
#X obj 580 409 > 50;
#X obj 454 386 env~ 2;
#X obj 517 386 env~ 2;
#X obj 580 386 env~ 2;
#X obj 320 305 samphold~;
#X obj 390 305 samphold~;
#X obj 460 305 samphold~;
#X obj 530 305 samphold~;
#X obj 249 93 sig~;
#X obj 249 48 * -1;
#X obj 249 71 + 1;
#X obj 161 54 >~ 0.5;
#X obj 581 164 >~ 0.5;
#X obj 161 78 *~;
#X obj 161 103 clip~ 0 1;
#X text 59 178 0 0 1;
#X text 59 191 0 1 0;
#X text 59 204 1 0 0;
#X text 59 219 1 1 1;
#X text 59 164 A B C;
#X text 18 401 3 bit DAC;
#X obj 105 219 expr~ ($v1*-1)+1;
#X obj 35 332 s~ \$1-1-sh;
#X obj 104 279 r~ \$1-1-sh;
#X obj 104 332 s~ \$1-2-sh;
#X obj 180 279 r~ \$1-2-sh;
#X obj 180 332 s~ \$1-3-sh;
#X obj 249 279 r~ \$1-3-sh;
#X obj 249 332 s~ \$1-4-sh;
#X obj 320 279 r~ \$1-4-sh;
#X obj 320 332 s~ \$1-5-sh;
#X obj 390 279 r~ \$1-5-sh;
#X obj 390 332 s~ \$1-6-sh;
#X obj 460 279 r~ \$1-6-sh;
#X obj 460 332 s~ \$1-7-sh;
#X obj 530 279 r~ \$1-7-sh;
#X obj 454 430 s \$1-bit1;
#X obj 517 430 s \$1-bit2;
#X obj 580 430 s \$1-bit3;
#X obj 155 430 s~ \$1-XOR;
#X obj 88 470 s~ \$1-RUN;
#X obj 249 23 r \$1-loop (0 \, 1);
#X obj 161 23 r~ \$1-01PLS;
#X obj 581 21 r~ \$1-02PLS;
#X text 22 482 Derek Holzer;
#X text 617 275 shift register based on 4021 CMOS IC;
#X text 170 508 RUNGLER concept and analog design by Rob Hordijk 2009;
#X obj 88 399 expr~ (($v1/8)+($v2/4)+($v3/2));
#X obj 609 49 r~ \$1-EXTCLK;
#N canvas 634 193 450 300 switch~ 0;
#X obj 172 57 inlet 0 \, 1;
#X obj 63 261 outlet~;
#X obj 63 58 inlet~;
#X obj 113 58 inlet~;
#X obj 63 196 *~;
#X obj 113 196 *~;
#X obj 172 88 select 0 1;
#X msg 142 153 0;
#X msg 172 153 1;
#X msg 212 153 0;
#X msg 242 153 1;
#X connect 0 0 6 0;
#X connect 2 0 4 0;
#X connect 3 0 5 0;
#X connect 4 0 1 0;
#X connect 5 0 1 0;
#X connect 6 0 8 0;
#X connect 6 0 9 0;
#X connect 6 1 7 0;
#X connect 6 1 10 0;
#X connect 7 0 4 1;
#X connect 8 0 4 1;
#X connect 9 0 5 1;
#X connect 10 0 5 1;
#X restore 581 99 pd switch~;
#X obj 638 76 r \$1-CLK_SRC;
#X connect 2 0 34 0;
#X connect 3 0 36 0;
#X connect 4 0 38 0;
#X connect 5 0 40 0;
#X connect 7 0 9 0;
#X connect 8 0 9 1;
#X connect 9 0 33 0;
#X connect 10 0 48 0;
#X connect 11 0 49 0;
#X connect 12 0 50 0;
#X connect 13 0 10 0;
#X connect 14 0 11 0;
#X connect 15 0 12 0;
#X connect 16 0 42 0;
#X connect 17 0 13 0;
#X connect 17 0 44 0;
#X connect 17 0 59 0;
#X connect 18 0 14 0;
#X connect 18 0 46 0;
#X connect 18 0 59 1;
#X connect 19 0 8 0;
#X connect 19 0 7 0;
#X connect 19 0 15 0;
#X connect 19 0 59 2;
#X connect 20 0 25 1;
#X connect 21 0 22 0;
#X connect 22 0 20 0;
#X connect 23 0 25 0;
#X connect 24 0 2 1;
#X connect 24 0 3 1;
#X connect 24 0 4 1;
#X connect 24 0 5 1;
#X connect 24 0 16 1;
#X connect 24 0 17 1;
#X connect 24 0 18 1;
#X connect 24 0 19 1;
#X connect 25 0 26 0;
#X connect 26 0 8 1;
#X connect 26 0 7 1;
#X connect 33 0 2 0;
#X connect 33 0 51 0;
#X connect 35 0 3 0;
#X connect 37 0 4 0;
#X connect 39 0 5 0;
#X connect 41 0 16 0;
#X connect 43 0 17 0;
#X connect 45 0 18 0;
#X connect 47 0 19 0;
#X connect 53 0 21 0;
#X connect 54 0 23 0;
#X connect 55 0 61 0;
#X connect 59 0 52 0;
#X connect 60 0 61 1;
#X connect 61 0 24 0;
#X connect 62 0 61 2;
#X restore 40 398 pd rungler;
#N canvas 382 209 450 300 output 1;
#X obj 18 218 s~ \$1-OUT;
#X obj 18 4 inlet~;
#X obj 62 29 / 127;
#X obj 18 100 *~;
#X obj 62 75 line~;
#X obj 62 52 pack 0 50;
#X obj 62 4 r \$1-VOL;
#X obj 53 179 s~ \$1-output;
#X connect 1 0 3 0;
#X connect 2 0 5 0;
#X connect 3 0 7 0;
#X connect 3 0 0 0;
#X connect 4 0 3 1;
#X connect 5 0 4 0;
#X connect 6 0 2 0;
#X restore 347 357 pd output;
#N canvas 44 75 622 538 O1 0;
#X obj 16 376 s~ \$1-01TRI;
#X obj 115 376 s~ \$1-01PLS;
#X obj 16 50 r \$1-01FRQ;
#X obj 335 46 r \$1-01RUN;
#X obj 233 22 r~ \$1-01_CV;
#X obj 320 21 r~ \$1-RUN;
#X obj 16 119 line~;
#X obj 320 145 *~;
#X obj 335 119 line~;
#X obj 335 98 pack 0 50;
#X obj 248 46 r \$1-01CV;
#X obj 248 117 line~;
#X obj 248 96 pack 0 50;
#X obj 233 145 *~;
#X obj 233 201 +~;
#X obj 16 218 +~;
#X obj 16 96 pack 0 50;
#X obj 16 275 mtof~;
#X obj 16 252 clip~ -60 127;
#X obj 248 73 / 2;
#X obj 335 73 / 2;
#X obj 16 321 bl.tri~;
#X obj 115 321 bl.square~;
#X obj 16 73 scale 0 127 -60 80;
#X connect 2 0 23 0;
#X connect 3 0 20 0;
#X connect 4 0 13 0;
#X connect 5 0 7 0;
#X connect 6 0 15 0;
#X connect 7 0 14 1;
#X connect 8 0 7 1;
#X connect 9 0 8 0;
#X connect 10 0 19 0;
#X connect 11 0 13 1;
#X connect 12 0 11 0;
#X connect 13 0 14 0;
#X connect 14 0 15 1;
#X connect 15 0 18 0;
#X connect 16 0 6 0;
#X connect 17 0 21 0;
#X connect 17 0 22 0;
#X connect 18 0 17 0;
#X connect 19 0 12 0;
#X connect 20 0 9 0;
#X connect 21 0 0 0;
#X connect 22 0 1 0;
#X connect 23 0 16 0;
#X restore 41 337 pd O1;
#N canvas 787 82 450 300 comparator 0;
#X obj 122 196 s~ \$1-PWM;
#X obj 122 9 r~ \$1-01TRI;
#X obj 209 9 r~ \$1-02TRI;
#X text 254 205 macumbista@gmail.com;
#X text 254 184 OCT 2016;
#X text 254 195 DEREK HOLZER;
#X obj 122 66 >~;
#X obj 122 103 -~ 0.5;
#X obj 122 142 *~ 2;
#X connect 1 0 6 0;
#X connect 2 0 6 1;
#X connect 6 0 7 0;
#X connect 7 0 8 0;
#X connect 8 0 0 0;
#X restore 41 377 pd comparator;
#X obj 38 267 s~ \$1-01_CV;
#X obj 89 313 s~ \$1-02_CV;
#X obj 200 365 s~ \$1-FIL_CV;
#X obj 363 23 inlet~ EXTFIL;
#X obj 453 23 inlet~ EXTCLK;
#N canvas 285 173 834 636 filter 0;
#X obj 194 367 +~ 100;
#X obj 194 391 dbtorms~;
#X obj 154 256 mtof~;
#X obj 294 156 *~;
#X obj 219 98 line~;
#X msg 219 72 \$1 50;
#X obj 353 283 / 127;
#X obj 353 339 line~;
#X msg 353 309 \$1 50;
#X obj 294 72 / 127;
#X obj 294 128 line~;
#X msg 294 98 \$1 50;
#X obj 194 339 line~;
#X msg 194 309 \$1 50;
#X obj 194 415 clip~ 0 32;
#X text 448 392 Derek Holzer;
#X text 448 405 Sept 2016;
#X text 448 416 macumbista@gmail.com;
#X obj 363 45 r~ \$1-FIL_CV;
#X obj 507 28 r~ \$1-RUN;
#X obj 219 45 r \$1-FILFRQ;
#X obj 194 256 r \$1-FILRES;
#X obj 445 45 r \$1-FILRUN;
#X obj 581 28 r \$1-FILSWP;
#X obj 353 256 r \$1-FILTYPE;
#X obj 294 45 r \$1-FILCV;
#X obj 691 15 r~ \$1-02TRI;
#X obj 142 548 s~ \$1-FIL;
#X obj 41 15 r~ \$1-PWM;
#X obj 141 28 r~ \$1-RUN;
#X obj 445 156 *~;
#X obj 445 72 / 127;
#X obj 445 128 line~;
#X msg 445 98 \$1 50;
#X obj 519 72 *~ 127;
#X obj 84 113 +~;
#X obj 581 156 *~;
#X obj 581 72 / 127;
#X obj 581 128 line~;
#X msg 581 98 \$1 50;
#X obj 655 72 *~ 127;
#X obj 154 202 expr~ $v1+$v2+$v3+$v4;
#X text 446 254 FILRES: -3dB to 30dB;
#X text 448 368 MULTIMODE RESONANT VOLTAGE CONTROLLED FILTER;
#X obj 126 72 *~ 0.5;
#X obj 363 72 *~ 64;
#X obj 154 229 clip~ 0 127;
#X text 447 290 FILTYPE: Mode: 0 = lowpass 0.5 = bandpass 1 = highpass;
#X obj 113 140 r~ \$1-EXTFIL;
#N canvas 634 193 450 300 switch~ 0;
#X obj 172 57 inlet 0 \, 1;
#X obj 63 261 outlet~;
#X obj 63 58 inlet~;
#X obj 113 58 inlet~;
#X obj 63 196 *~;
#X obj 113 196 *~;
#X obj 172 88 select 0 1;
#X msg 142 153 0;
#X msg 172 153 1;
#X msg 212 153 0;
#X msg 242 153 1;
#X connect 0 0 6 0;
#X connect 2 0 4 0;
#X connect 3 0 5 0;
#X connect 4 0 1 0;
#X connect 5 0 1 0;
#X connect 6 0 8 0;
#X connect 6 0 9 0;
#X connect 6 1 7 0;
#X connect 6 1 10 0;
#X connect 7 0 4 1;
#X connect 8 0 4 1;
#X connect 9 0 5 1;
#X connect 10 0 5 1;
#X restore 51 202 pd switch~;
#X obj 199 153 r \$1-FIL_SRC;
#X obj 154 457 mmb/multimode.mmb~;
#X obj 142 521 mmb/biquad.mmb~;
#X obj 194 283 scale 0 127 -3 30;
#X connect 0 0 1 0;
#X connect 1 0 14 0;
#X connect 2 0 51 0;
#X connect 3 0 41 1;
#X connect 4 0 41 0;
#X connect 5 0 4 0;
#X connect 6 0 8 0;
#X connect 7 0 51 2;
#X connect 8 0 7 0;
#X connect 9 0 11 0;
#X connect 10 0 3 0;
#X connect 11 0 10 0;
#X connect 12 0 0 0;
#X connect 13 0 12 0;
#X connect 14 0 51 1;
#X connect 18 0 45 0;
#X connect 19 0 34 0;
#X connect 20 0 5 0;
#X connect 21 0 53 0;
#X connect 22 0 31 0;
#X connect 23 0 37 0;
#X connect 24 0 6 0;
#X connect 25 0 9 0;
#X connect 26 0 40 0;
#X connect 28 0 35 0;
#X connect 29 0 44 0;
#X connect 30 0 41 2;
#X connect 31 0 33 0;
#X connect 32 0 30 0;
#X connect 33 0 32 0;
#X connect 34 0 30 1;
#X connect 35 0 49 0;
#X connect 36 0 41 3;
#X connect 37 0 39 0;
#X connect 38 0 36 0;
#X connect 39 0 38 0;
#X connect 40 0 36 1;
#X connect 41 0 46 0;
#X connect 44 0 35 1;
#X connect 45 0 3 1;
#X connect 46 0 2 0;
#X connect 48 0 49 1;
#X connect 49 0 52 0;
#X connect 50 0 49 2;
#X connect 51 0 52 1;
#X connect 51 1 52 2;
#X connect 51 2 52 3;
#X connect 51 3 52 4;
#X connect 51 4 52 5;
#X connect 52 0 27 0;
#X connect 53 0 13 0;
#X restore 40 419 pd filter;
#X text 44 538 NOV 2016;
#X obj 38 22 inlet matrixctl;
#X text 237 560 BENJOLIN concept and analog design by Rob Hordijk 2009;
#N canvas 674 75 622 538 O2 0;
#X obj 320 21 r~ \$1-RUN;
#X obj 16 119 line~;
#X obj 320 145 *~;
#X obj 335 119 line~;
#X obj 335 98 pack 0 50;
#X obj 248 117 line~;
#X obj 248 96 pack 0 50;
#X obj 233 145 *~;
#X obj 233 201 +~;
#X obj 16 228 +~;
#X obj 16 96 pack 0 50;
#X text 284 385 macumbista@gmail.com;
#X text 284 375 DEREK HOLZER;
#X text 284 364 NOV 2016;
#X obj 16 50 r \$1-02FRQ;
#X obj 233 22 r~ \$1-02_CV;
#X obj 16 376 s~ \$1-02TRI;
#X obj 115 376 s~ \$1-02PLS;
#X obj 248 46 r \$1-02CV;
#X obj 335 46 r \$1-02RUN;
#X obj 16 275 mtof~;
#X obj 16 252 clip~ -60 127;
#X obj 248 73 / 2;
#X obj 335 73 / 2;
#X obj 16 325 bl.tri~;
#X obj 115 325 bl.square~;
#X obj 16 73 scale 0 127 -60 80;
#X connect 0 0 2 0;
#X connect 1 0 9 0;
#X connect 2 0 8 1;
#X connect 3 0 2 1;
#X connect 4 0 3 0;
#X connect 5 0 7 1;
#X connect 6 0 5 0;
#X connect 7 0 8 0;
#X connect 8 0 9 1;
#X connect 9 0 21 0;
#X connect 10 0 1 0;
#X connect 14 0 26 0;
#X connect 15 0 7 0;
#X connect 18 0 22 0;
#X connect 19 0 23 0;
#X connect 20 0 24 0;
#X connect 20 0 25 0;
#X connect 21 0 20 0;
#X connect 22 0 6 0;
#X connect 23 0 4 0;
#X connect 24 0 16 0;
#X connect 25 0 17 0;
#X connect 26 0 10 0;
#X restore 41 357 pd O2;
#X obj 363 52 s~ \$1-EXTFIL;
#X obj 453 52 s~ \$1-EXTCLK;
#X obj 38 222 mtx~ 8 4;
#X connect 0 0 45 0;
#X connect 1 0 45 1;
#X connect 2 0 45 2;
#X connect 3 0 45 3;
#X connect 4 0 45 4;
#X connect 5 0 45 5;
#X connect 6 0 45 6;
#X connect 7 0 45 7;
#X connect 10 0 18 0;
#X connect 11 0 19 0;
#X connect 12 0 20 0;
#X connect 13 0 21 0;
#X connect 14 0 22 0;
#X connect 15 0 23 0;
#X connect 16 0 24 0;
#X connect 17 0 25 0;
#X connect 26 0 33 0;
#X connect 27 0 34 0;
#X connect 28 0 35 0;
#X connect 36 0 43 0;
#X connect 37 0 44 0;
#X connect 40 0 45 0;
#X connect 45 0 33 0;
#X connect 45 1 34 0;
#X connect 45 2 35 0;
#X connect 45 3 30 0;
#X restore 58 214 pd benjolinguts;
#X obj 75 101 inlet~ 01CV;
#X obj 92 121 inlet~ 02CV;
#X obj 110 141 inlet~ FILCV;
#X obj 9 274 outlet~ OUT;
#X obj 70 260 outlet~ 01TRI;
#X obj 82 280 outlet~ 01PLS;
#X obj 95 300 outlet~ 02TRI;
#X obj 107 320 outlet~ 02PLS;
#X obj 120 340 outlet~ PWM;
#X obj 132 360 outlet~ RUN;
#X obj 145 380 outlet~ XOR;
#X obj 127 161 inlet~ EXTFIL;
#X obj 145 181 inlet~ EXTCLK;
#X text 790 523 PURE DATA implementation by Derek Holzer 2016;
#X text 273 523 BENJOLIN concept and analog design by Rob Hordijk 2009;
#X obj 914 193 vradio 25 1 1 2 \$1-FIL_SRC empty empty -25 70 0 18 #fc0400 #000000 #000000 0;
#X text 951 200 INT;
#X text 951 220 EXT;
#X obj 914 273 vradio 25 1 1 2 \$1-CLK_SRC empty empty -25 70 0 18 #fc0400 #000000 #000000 0;
#X text 951 280 INT;
#X text 951 300 EXT;
#X text 233 49 PLEASE NOTE: proper usage is [benjolin \$0] or [benjolin "uniquename"]. This patch will not function correctly without something in the 1st creation argument!;
#N canvas 186 141 450 300 changelog 0;
#X text 269 257 Derek Holzer;
#X text 269 273 macumbista@gmail.com;
#X text 37 38 17.05.17 corrected modulation inputs to O1 (thx Anton!) \, added Pd-native [rev2~] in place of external [freeverb~] in the help patch.;
#X restore 58 380 pd changelog;
#X obj 968 355 knob 70 0 127 0 0 \$1-02FRQ empty #e4e4e4 #a8a8a8 #4d4d4d 0 0 0 0 1 270 0 0 0;
#X obj 740 355 knob 70 0 127 0 0 \$1-01FRQ empty #e4e4e4 #a8a8a8 #4d4d4d 0 0 0 0 1 270 0 0 0;
#X obj 890 355 knob 70 0 127 0 0 \$1-02RUN empty #e4e4e4 #a8a8a8 #4d4d4d 0 0 0 0 1 270 0 0 0;
#X obj 815 355 knob 70 0 127 0 0 \$1-01RUN empty #e4e4e4 #a8a8a8 #4d4d4d 0 0 0 0 1 270 0 0 0;
#X obj 968 426 knob 70 0 127 0 0 \$1-FILSWP empty #e4e4e4 #a8a8a8 #4d4d4d 0 0 0 0 1 270 0 0 0;
#X obj 740 431 knob 70 0 127 0 0 \$1-FILFRQ empty #e4e4e4 #a8a8a8 #4d4d4d 0 0 0 0 1 270 0 0 0;
#X obj 890 431 knob 70 0 127 0 0 \$1-FILRUN empty #e4e4e4 #a8a8a8 #4d4d4d 0 0 0 0 1 270 0 0 0;
#X obj 815 431 knob 70 0 127 0 0 \$1-FILRES empty #e4e4e4 #a8a8a8 #4d4d4d 0 0 0 0 1 270 0 0 0;
#X obj 831 273 knob 50 0 127 0 0 \$1-VOL empty #e4e4e4 #a8a8a8 #4d4d4d 0 0 0 0 1 270 0 0 0;
#X obj 697 274 knob 50 0 127 0 0 \$1-FILCV empty #e4e4e4 #a8a8a8 #4d4d4d 0 0 0 0 1 270 0 0 0;
#X obj 762 273 knob 50 0 127 0 0 \$1-FILTYPE empty #e4e4e4 #a8a8a8 #4d4d4d 0 0 0 0 1 270 0 0 0;
#X obj 762 193 knob 50 0 127 0 0 \$1-02CV empty #e4e4e4 #a8a8a8 #4d4d4d 0 0 0 0 1 270 0 0 0;
#X obj 697 193 knob 50 0 127 0 0 \$1-01CV empty #e4e4e4 #a8a8a8 #4d4d4d 0 0 0 0 1 270 0 0 0;
#X text 975 417 02_FRQ;
#X text 896 417 02_RUN;
#X text 748 417 01_FRQ, f 9;
#X text 822 417 01_RUN;
#X text 838 319 VOL;
#X text 698 239 01_CV;
#X text 762 239 02_CV;
#X text 542 349 RUN;
#X text 580 349 XOR;
#X text 347 349 T1;
#X text 380 349 P1;
#X text 419 349 T2;
#X text 463 349 P2;
#X text 500 349 PWM;
#X obj 300 181 mtx.ctl 8 4 40 0 0 0 0 0 0 0 0 0 0 0 0;
#X text 626 313 OUT;
#X text 626 273 FLT;
#X text 309 349 FLT;
#X text 629 231 O2;
#X text 631 192 O1;
#X msg 284 101 0 3 1;
#X text 348 192 X;
#X text 388 192 X;
#X text 430 233 X;
#X text 470 233 X;
#X text 898 328 CLK_SRC;
#X text 831 248 LOOP;
#X text 898 248 FIL_SRC;
#X obj 309 380 oscope~ 199 104 10 3 77 -1 1 0 0 0 0 77 77 77 228 228 228 168 168 168 0 empty;
#X obj 527 380 oscope~ 199 104 20 3 128 -1 1 0 0 0 0 77 77 77 228 228 228 168 168 168 0 empty;
#X obj 309 569 r~ \$1-OUT;
#X obj 532 569 r~ \$1-RUN;
#X text 309 491 OUT;
#X text 527 491 RUN;
#X text 973 493 T2→FLT;
#X text 890 493 RUN→FLT;
#X text 746 493 FLT_FRQ;
#X text 822 493 FLT_RES;
#X text 698 319 FLT_CV;
#X text 755 319 FLT_TYPE;
#X connect 5 0 64 0;
#X connect 7 0 11 0;
#X connect 7 1 12 0;
#X connect 7 2 13 0;
#X connect 7 3 14 0;
#X connect 7 4 15 0;
#X connect 7 5 16 0;
#X connect 7 6 17 0;
#X connect 7 7 18 0;
#X connect 8 0 7 1;
#X connect 9 0 7 2;
#X connect 10 0 7 3;
#X connect 19 0 7 4;
#X connect 20 0 7 5;
#X connect 58 0 7 0;
#X connect 64 0 58 0;
#X connect 74 0 72 0;
#X connect 75 0 73 0;
#X coords 0 -1 1 1 806 394 1 270 147;
